<mxfile host="app.diagrams.net" agent="Mozilla/5.0 (Windows NT 10.0; Win64; x64) AppleWebKit/537.36 (KHTML, like Gecko) Chrome/129.0.0.0 Safari/537.36" version="24.7.16">
  <diagram name="1 oldal" id="wi1ZMzLcOIpfzxxCR3tS">
    <mxGraphModel dx="1050" dy="2860" grid="1" gridSize="10" guides="1" tooltips="1" connect="1" arrows="1" fold="1" page="1" pageScale="1" pageWidth="827" pageHeight="1169" math="0" shadow="0">
      <root>
        <mxCell id="0" />
        <mxCell id="1" parent="0" />
        <mxCell id="IWZ1piwPbkb_72MDJU27-4" value="Etterem" style="ellipse;shape=doubleEllipse;whiteSpace=wrap;html=1;" vertex="1" parent="1">
          <mxGeometry x="140" y="-1660" width="100" height="60" as="geometry" />
        </mxCell>
        <mxCell id="IWZ1piwPbkb_72MDJU27-6" value="" style="endArrow=none;html=1;rounded=0;entryX=0.262;entryY=0.98;entryDx=0;entryDy=0;entryPerimeter=0;exitX=0.5;exitY=0;exitDx=0;exitDy=0;" edge="1" parent="1" source="IWZ1piwPbkb_72MDJU27-7" target="IWZ1piwPbkb_72MDJU27-4">
          <mxGeometry width="50" height="50" relative="1" as="geometry">
            <mxPoint x="330" y="-1510" as="sourcePoint" />
            <mxPoint x="410" y="-1440" as="targetPoint" />
          </mxGeometry>
        </mxCell>
        <mxCell id="IWZ1piwPbkb_72MDJU27-7" value="Csillag" style="ellipse;whiteSpace=wrap;html=1;" vertex="1" parent="1">
          <mxGeometry x="20" y="-1530" width="90" height="50" as="geometry" />
        </mxCell>
        <mxCell id="IWZ1piwPbkb_72MDJU27-8" value="Cim" style="ellipse;whiteSpace=wrap;html=1;" vertex="1" parent="1">
          <mxGeometry x="190" y="-1527.5" width="80" height="45" as="geometry" />
        </mxCell>
        <mxCell id="IWZ1piwPbkb_72MDJU27-10" value="" style="endArrow=none;html=1;rounded=0;entryX=0.367;entryY=0.051;entryDx=0;entryDy=0;entryPerimeter=0;exitX=0.5;exitY=1;exitDx=0;exitDy=0;" edge="1" parent="1" source="IWZ1piwPbkb_72MDJU27-4" target="IWZ1piwPbkb_72MDJU27-8">
          <mxGeometry width="50" height="50" relative="1" as="geometry">
            <mxPoint x="360" y="-1390" as="sourcePoint" />
            <mxPoint x="410" y="-1440" as="targetPoint" />
          </mxGeometry>
        </mxCell>
        <mxCell id="IWZ1piwPbkb_72MDJU27-13" value="Utca" style="ellipse;whiteSpace=wrap;html=1;" vertex="1" parent="1">
          <mxGeometry x="230" y="-1402.5" width="80" height="50" as="geometry" />
        </mxCell>
        <mxCell id="IWZ1piwPbkb_72MDJU27-15" value="Varos" style="ellipse;whiteSpace=wrap;html=1;" vertex="1" parent="1">
          <mxGeometry x="340" y="-1406.25" width="90" height="52.5" as="geometry" />
        </mxCell>
        <mxCell id="IWZ1piwPbkb_72MDJU27-16" value="" style="endArrow=none;html=1;rounded=0;exitX=0.5;exitY=0;exitDx=0;exitDy=0;" edge="1" parent="1" source="IWZ1piwPbkb_72MDJU27-15" target="IWZ1piwPbkb_72MDJU27-8">
          <mxGeometry width="50" height="50" relative="1" as="geometry">
            <mxPoint x="550" y="-1390" as="sourcePoint" />
            <mxPoint x="600" y="-1440" as="targetPoint" />
          </mxGeometry>
        </mxCell>
        <mxCell id="IWZ1piwPbkb_72MDJU27-17" value="Hazszam" style="ellipse;whiteSpace=wrap;html=1;" vertex="1" parent="1">
          <mxGeometry x="120" y="-1405" width="80" height="55" as="geometry" />
        </mxCell>
        <mxCell id="IWZ1piwPbkb_72MDJU27-18" value="" style="endArrow=none;html=1;rounded=0;entryX=0;entryY=1;entryDx=0;entryDy=0;exitX=0.5;exitY=0;exitDx=0;exitDy=0;" edge="1" parent="1" source="IWZ1piwPbkb_72MDJU27-17" target="IWZ1piwPbkb_72MDJU27-8">
          <mxGeometry width="50" height="50" relative="1" as="geometry">
            <mxPoint x="550" y="-1390" as="sourcePoint" />
            <mxPoint x="600" y="-1440" as="targetPoint" />
          </mxGeometry>
        </mxCell>
        <mxCell id="IWZ1piwPbkb_72MDJU27-19" value="" style="endArrow=none;html=1;rounded=0;exitX=0.5;exitY=1;exitDx=0;exitDy=0;" edge="1" parent="1" source="IWZ1piwPbkb_72MDJU27-7" target="IWZ1piwPbkb_72MDJU27-20">
          <mxGeometry width="50" height="50" relative="1" as="geometry">
            <mxPoint x="550" y="-1390" as="sourcePoint" />
            <mxPoint x="250" y="-1400" as="targetPoint" />
          </mxGeometry>
        </mxCell>
        <mxCell id="IWZ1piwPbkb_72MDJU27-20" value="" style="verticalLabelPosition=bottom;verticalAlign=top;html=1;shape=mxgraph.basic.rect;fillColor2=none;strokeWidth=1;size=20;indent=5;" vertex="1" parent="1">
          <mxGeometry x="40" y="-1410" width="50" height="60" as="geometry" />
        </mxCell>
        <mxCell id="IWZ1piwPbkb_72MDJU27-21" value="" style="verticalLabelPosition=bottom;verticalAlign=top;html=1;shape=mxgraph.basic.rect;fillColor2=none;strokeWidth=1;size=20;indent=5;" vertex="1" parent="1">
          <mxGeometry x="135" y="-1290" width="50" height="60" as="geometry" />
        </mxCell>
        <mxCell id="IWZ1piwPbkb_72MDJU27-23" value="" style="verticalLabelPosition=bottom;verticalAlign=top;html=1;shape=mxgraph.basic.rect;fillColor2=none;strokeWidth=1;size=20;indent=5;" vertex="1" parent="1">
          <mxGeometry x="245" y="-1290" width="50" height="60" as="geometry" />
        </mxCell>
        <mxCell id="IWZ1piwPbkb_72MDJU27-24" value="" style="verticalLabelPosition=bottom;verticalAlign=top;html=1;shape=mxgraph.basic.rect;fillColor2=none;strokeWidth=1;size=20;indent=5;" vertex="1" parent="1">
          <mxGeometry x="360" y="-1300" width="50" height="60" as="geometry" />
        </mxCell>
        <mxCell id="IWZ1piwPbkb_72MDJU27-25" value="" style="endArrow=none;html=1;rounded=0;entryX=0.5;entryY=1;entryDx=0;entryDy=0;" edge="1" parent="1" source="IWZ1piwPbkb_72MDJU27-24" target="IWZ1piwPbkb_72MDJU27-15">
          <mxGeometry width="50" height="50" relative="1" as="geometry">
            <mxPoint x="550" y="-1390" as="sourcePoint" />
            <mxPoint x="600" y="-1440" as="targetPoint" />
          </mxGeometry>
        </mxCell>
        <mxCell id="IWZ1piwPbkb_72MDJU27-26" value="" style="endArrow=none;html=1;rounded=0;exitX=0.5;exitY=1;exitDx=0;exitDy=0;" edge="1" parent="1" source="IWZ1piwPbkb_72MDJU27-13" target="IWZ1piwPbkb_72MDJU27-23">
          <mxGeometry width="50" height="50" relative="1" as="geometry">
            <mxPoint x="550" y="-1390" as="sourcePoint" />
            <mxPoint x="600" y="-1440" as="targetPoint" />
          </mxGeometry>
        </mxCell>
        <mxCell id="IWZ1piwPbkb_72MDJU27-27" value="" style="endArrow=none;html=1;rounded=0;exitX=0.5;exitY=1;exitDx=0;exitDy=0;entryX=0.492;entryY=0.087;entryDx=0;entryDy=0;entryPerimeter=0;" edge="1" parent="1" source="IWZ1piwPbkb_72MDJU27-17" target="IWZ1piwPbkb_72MDJU27-21">
          <mxGeometry width="50" height="50" relative="1" as="geometry">
            <mxPoint x="360" y="-1310" as="sourcePoint" />
            <mxPoint x="600" y="-1440" as="targetPoint" />
          </mxGeometry>
        </mxCell>
        <mxCell id="IWZ1piwPbkb_72MDJU27-28" value="" style="endArrow=none;html=1;rounded=0;entryX=0.5;entryY=1;entryDx=0;entryDy=0;exitX=0.5;exitY=0;exitDx=0;exitDy=0;" edge="1" parent="1" source="IWZ1piwPbkb_72MDJU27-13" target="IWZ1piwPbkb_72MDJU27-8">
          <mxGeometry width="50" height="50" relative="1" as="geometry">
            <mxPoint x="370" y="-1390" as="sourcePoint" />
            <mxPoint x="420" y="-1440" as="targetPoint" />
          </mxGeometry>
        </mxCell>
        <mxCell id="IWZ1piwPbkb_72MDJU27-29" value="&lt;u&gt;E_kod&lt;/u&gt;" style="rhombus;whiteSpace=wrap;html=1;" vertex="1" parent="1">
          <mxGeometry x="20" y="-1630" width="50" height="50" as="geometry" />
        </mxCell>
        <mxCell id="IWZ1piwPbkb_72MDJU27-32" value="" style="endArrow=none;html=1;rounded=0;entryX=1;entryY=0;entryDx=0;entryDy=0;exitX=0;exitY=0.5;exitDx=0;exitDy=0;" edge="1" parent="1" source="IWZ1piwPbkb_72MDJU27-4" target="IWZ1piwPbkb_72MDJU27-29">
          <mxGeometry width="50" height="50" relative="1" as="geometry">
            <mxPoint x="370" y="-1390" as="sourcePoint" />
            <mxPoint x="420" y="-1440" as="targetPoint" />
          </mxGeometry>
        </mxCell>
        <mxCell id="IWZ1piwPbkb_72MDJU27-35" value="Foszakacs" style="ellipse;shape=doubleEllipse;margin=3;whiteSpace=wrap;html=1;align=center;" vertex="1" parent="1">
          <mxGeometry x="480" y="-1650" width="100" height="40" as="geometry" />
        </mxCell>
        <mxCell id="IWZ1piwPbkb_72MDJU27-36" value="&lt;u&gt;F_kod&lt;/u&gt;" style="rhombus;whiteSpace=wrap;html=1;" vertex="1" parent="1">
          <mxGeometry x="376" y="-1627.5" width="76" height="45" as="geometry" />
        </mxCell>
        <mxCell id="IWZ1piwPbkb_72MDJU27-37" value="" style="endArrow=none;html=1;rounded=0;entryX=0.02;entryY=0.69;entryDx=0;entryDy=0;entryPerimeter=0;exitX=1;exitY=0;exitDx=0;exitDy=0;" edge="1" parent="1" source="IWZ1piwPbkb_72MDJU27-36" target="IWZ1piwPbkb_72MDJU27-35">
          <mxGeometry width="50" height="50" relative="1" as="geometry">
            <mxPoint x="370" y="-1390" as="sourcePoint" />
            <mxPoint x="420" y="-1440" as="targetPoint" />
          </mxGeometry>
        </mxCell>
        <mxCell id="IWZ1piwPbkb_72MDJU27-38" value="Nev" style="ellipse;whiteSpace=wrap;html=1;" vertex="1" parent="1">
          <mxGeometry x="452" y="-1528.75" width="88" height="47.5" as="geometry" />
        </mxCell>
        <mxCell id="IWZ1piwPbkb_72MDJU27-39" value="Eletkor" style="ellipse;whiteSpace=wrap;html=1;" vertex="1" parent="1">
          <mxGeometry x="580" y="-1527.5" width="100" height="45" as="geometry" />
        </mxCell>
        <mxCell id="IWZ1piwPbkb_72MDJU27-40" value="Vegzettseg" style="ellipse;shape=doubleEllipse;margin=3;whiteSpace=wrap;html=1;align=center;" vertex="1" parent="1">
          <mxGeometry x="710" y="-1525" width="100" height="40" as="geometry" />
        </mxCell>
        <mxCell id="IWZ1piwPbkb_72MDJU27-41" value="" style="endArrow=none;html=1;rounded=0;entryX=0;entryY=1;entryDx=0;entryDy=0;exitX=0.5;exitY=0;exitDx=0;exitDy=0;" edge="1" parent="1" source="IWZ1piwPbkb_72MDJU27-38" target="IWZ1piwPbkb_72MDJU27-35">
          <mxGeometry width="50" height="50" relative="1" as="geometry">
            <mxPoint x="370" y="-1390" as="sourcePoint" />
            <mxPoint x="420" y="-1440" as="targetPoint" />
          </mxGeometry>
        </mxCell>
        <mxCell id="IWZ1piwPbkb_72MDJU27-42" value="" style="endArrow=none;html=1;rounded=0;entryX=0.5;entryY=1;entryDx=0;entryDy=0;exitX=0.5;exitY=0;exitDx=0;exitDy=0;" edge="1" parent="1" source="IWZ1piwPbkb_72MDJU27-39" target="IWZ1piwPbkb_72MDJU27-35">
          <mxGeometry width="50" height="50" relative="1" as="geometry">
            <mxPoint x="370" y="-1390" as="sourcePoint" />
            <mxPoint x="420" y="-1440" as="targetPoint" />
          </mxGeometry>
        </mxCell>
        <mxCell id="IWZ1piwPbkb_72MDJU27-43" value="" style="endArrow=none;html=1;rounded=0;entryX=1;entryY=1;entryDx=0;entryDy=0;exitX=0.5;exitY=0;exitDx=0;exitDy=0;" edge="1" parent="1" source="IWZ1piwPbkb_72MDJU27-40" target="IWZ1piwPbkb_72MDJU27-35">
          <mxGeometry width="50" height="50" relative="1" as="geometry">
            <mxPoint x="370" y="-1390" as="sourcePoint" />
            <mxPoint x="420" y="-1440" as="targetPoint" />
          </mxGeometry>
        </mxCell>
        <mxCell id="IWZ1piwPbkb_72MDJU27-44" value="" style="endArrow=none;html=1;rounded=0;" edge="1" parent="1">
          <mxGeometry width="50" height="50" relative="1" as="geometry">
            <mxPoint x="500" y="-1430" as="sourcePoint" />
            <mxPoint x="500" y="-1480" as="targetPoint" />
          </mxGeometry>
        </mxCell>
        <mxCell id="IWZ1piwPbkb_72MDJU27-45" value="" style="verticalLabelPosition=bottom;verticalAlign=top;html=1;shape=mxgraph.basic.rect;fillColor2=none;strokeWidth=1;size=20;indent=5;" vertex="1" parent="1">
          <mxGeometry x="480" y="-1440" width="50" height="60" as="geometry" />
        </mxCell>
        <mxCell id="IWZ1piwPbkb_72MDJU27-46" value="" style="verticalLabelPosition=bottom;verticalAlign=top;html=1;shape=mxgraph.basic.rect;fillColor2=none;strokeWidth=1;size=20;indent=5;" vertex="1" parent="1">
          <mxGeometry x="605" y="-1440" width="50" height="60" as="geometry" />
        </mxCell>
        <mxCell id="IWZ1piwPbkb_72MDJU27-51" value="" style="endArrow=none;html=1;rounded=0;entryX=0.5;entryY=1;entryDx=0;entryDy=0;exitX=0.516;exitY=0.04;exitDx=0;exitDy=0;exitPerimeter=0;" edge="1" parent="1" source="IWZ1piwPbkb_72MDJU27-46" target="IWZ1piwPbkb_72MDJU27-39">
          <mxGeometry width="50" height="50" relative="1" as="geometry">
            <mxPoint x="370" y="-1360" as="sourcePoint" />
            <mxPoint x="420" y="-1410" as="targetPoint" />
          </mxGeometry>
        </mxCell>
        <mxCell id="IWZ1piwPbkb_72MDJU27-52" value="" style="verticalLabelPosition=bottom;verticalAlign=top;html=1;shape=mxgraph.basic.rect;fillColor2=none;strokeWidth=1;size=20;indent=5;" vertex="1" parent="1">
          <mxGeometry x="740" y="-1440" width="50" height="60" as="geometry" />
        </mxCell>
        <mxCell id="IWZ1piwPbkb_72MDJU27-53" value="" style="endArrow=none;html=1;rounded=0;entryX=0.5;entryY=1;entryDx=0;entryDy=0;exitX=0.408;exitY=0.08;exitDx=0;exitDy=0;exitPerimeter=0;" edge="1" parent="1" source="IWZ1piwPbkb_72MDJU27-52" target="IWZ1piwPbkb_72MDJU27-40">
          <mxGeometry width="50" height="50" relative="1" as="geometry">
            <mxPoint x="370" y="-1360" as="sourcePoint" />
            <mxPoint x="420" y="-1410" as="targetPoint" />
          </mxGeometry>
        </mxCell>
      </root>
    </mxGraphModel>
  </diagram>
</mxfile>
